<svg width="136" height="82" viewBox="0 0 136 82" fill="none" xmlns="http://www.w3.org/2000/svg">
<path d="M16.4 0.699997L27.2 78.2L30.7 81H16.4L20 78.2L16.6 54.1H9.7L6.3 78.2L9.8 81H0L3.6 78.2L14.4 0.699997H16.4ZM10.1 51.8H16.3L13.2 27.3L10.1 51.8ZM43.9383 36.5C51.6383 36.5 51.3383 29.2 51.3383 20C51.3383 10.2 52.1383 3.8 43.9383 3.8V36.5ZM43.9383 39.4V78.2L47.4383 81H33.9383L37.4383 78.2V3.8L33.9383 0.999999H42.7383C52.6383 0.999999 57.7383 6.8 57.7383 19.9C57.7383 28.4 53.9383 36.7 49.1383 38.3C54.9383 40 55.6383 45 56.5383 52.1L59.7383 78.2L63.2383 81H53.4383L49.7383 48.9C48.7383 40 47.4383 39.4 43.9383 39.4ZM66.1414 0.999999H89.2414V26L84.1414 3.8H80.6414V78.2L84.1414 81H70.6414L74.1414 78.2V3.8H70.6414L66.1414 26V0.999999ZM95.832 3.8L92.332 0.999999H105.832L102.332 3.8V78.2L105.832 81H92.332L95.832 78.2V3.8ZM123.313 0.499993C132.313 0.499993 135.213 24.7 135.213 41.7C135.213 57.5 131.513 81.5 122.913 81.5C114.412 81.5 110.813 59 110.813 42C110.813 23.4 113.713 0.499993 123.313 0.499993ZM117.713 42.3C117.713 58.5 117.313 79.1 123.013 79.1C128.313 79.1 128.313 58.6 128.313 42.4C128.313 23.5 128.213 2.6 123.013 2.6C117.213 2.6 117.713 23.6 117.713 42.3Z" fill="white"/>
</svg>
